<svg width="16" height="16" viewBox="0 0 16 16" fill="none" xmlns="http://www.w3.org/2000/svg"><g clip-path="url(#a)" fill-rule="evenodd" clip-rule="evenodd" fill="#513985"><path d="M8 2a6 6 0 1 0 0 12A6 6 0 0 0 8 2ZM.667 8a7.333 7.333 0 1 1 14.667 0A7.333 7.333 0 0 1 .667 8Z"/><path d="M8 7.333c.368 0 .666.299.666.667v2.667a.667.667 0 1 1-1.333 0V8c0-.368.298-.667.667-.667Zm-.667-2c0-.368.298-.666.667-.666h.006a.667.667 0 1 1 0 1.333H8a.667.667 0 0 1-.667-.667Z"/></g><defs><clipPath id="a"><path fill="#fff" d="M0 0h16v16H0z"/></clipPath></defs></svg>