<svg width="148" height="29" viewBox="0 0 148 29" fill="none" xmlns="http://www.w3.org/2000/svg">
    <g clip-path="url(#a)">
        <path fill="#2676E7" d="M.4.4h28v28H.4z"/>
        <path d="m16.102 21.904-1.847-1.848 4.228-4.104-4.228-4.104L16.102 10l5.965 5.952-5.965 5.952Z" fill="#fff"/>
        <path d="M12.753 19.104 6.8 13.152 12.753 7.2l1.86 1.848-4.241 4.104 4.24 4.104-1.86 1.848Z" fill="#fff"/>
    </g>
    <path d="M44.56 21.514c-1.38 0-2.559-.306-3.534-.918a6.11 6.11 0 0 1-2.245-2.53c-.512-1.066-.773-2.273-.781-3.62.008-1.372.277-2.588.806-3.646a6.086 6.086 0 0 1 2.282-2.505c.983-.611 2.153-.917 3.509-.917 1.52 0 2.806.384 3.856 1.153 1.058.76 1.749 1.802 2.071 3.125l-2.976.806c-.232-.72-.616-1.277-1.153-1.674a2.969 2.969 0 0 0-1.835-.608c-.778 0-1.418.186-1.922.558-.505.364-.877.868-1.116 1.513-.24.645-.36 1.377-.36 2.195 0 1.273.285 2.302.856 3.088.57.785 1.417 1.178 2.542 1.178.793 0 1.417-.182 1.872-.546.463-.364.81-.889 1.042-1.575l3.05.682c-.413 1.364-1.137 2.414-2.17 3.15-1.033.727-2.298 1.09-3.794 1.09Zm13.43 0c-1.356 0-2.546-.294-3.571-.88a6.268 6.268 0 0 1-2.406-2.443c-.57-1.042-.855-2.24-.855-3.596 0-1.463.28-2.732.843-3.807.562-1.083 1.343-1.922 2.343-2.517 1-.596 2.158-.893 3.472-.893 1.39 0 2.567.326 3.534.98.976.644 1.7 1.558 2.17 2.74.472 1.182.65 2.575.534 4.179H61.09v-1.091c-.008-1.455-.265-2.518-.769-3.187-.504-.67-1.298-1.005-2.38-1.005-1.224 0-2.133.38-2.729 1.141-.595.752-.892 1.856-.892 3.31 0 1.357.297 2.407.892 3.15.596.745 1.464 1.117 2.604 1.117.736 0 1.368-.162 1.898-.484.537-.33.95-.806 1.24-1.426l2.95.893c-.512 1.207-1.305 2.145-2.38 2.814a6.513 6.513 0 0 1-3.534 1.005Zm-4.613-6.237V13.02h9.213v2.257h-9.213Zm12.699 5.865V7.75h2.642v3.261l-.323-.421a4.79 4.79 0 0 1 .657-1.216 3.659 3.659 0 0 1 1.005-.917c.33-.224.694-.397 1.09-.521.406-.132.82-.21 1.24-.236a5.054 5.054 0 0 1 1.228.05v2.79c-.396-.116-.855-.153-1.376-.112a3.152 3.152 0 0 0-1.389.434 3.122 3.122 0 0 0-1.016.856 3.61 3.61 0 0 0-.57 1.19 5.22 5.22 0 0 0-.187 1.426v6.808h-3Zm15.008.372c-1.356 0-2.546-.294-3.571-.88a6.27 6.27 0 0 1-2.406-2.443c-.57-1.042-.855-2.24-.855-3.596 0-1.463.28-2.732.843-3.807.562-1.083 1.343-1.922 2.343-2.517 1-.596 2.158-.893 3.472-.893 1.39 0 2.567.326 3.534.98.976.644 1.7 1.558 2.17 2.74.472 1.182.65 2.575.534 4.179h-2.964v-1.091c-.008-1.455-.264-2.518-.769-3.187-.504-.67-1.298-1.005-2.38-1.005-1.224 0-2.133.38-2.729 1.141-.595.752-.892 1.856-.892 3.31 0 1.357.297 2.407.892 3.15.596.745 1.464 1.117 2.604 1.117.736 0 1.368-.162 1.898-.484.537-.33.95-.806 1.24-1.426l2.95.893c-.512 1.207-1.305 2.145-2.38 2.814a6.513 6.513 0 0 1-3.534 1.005Zm-4.613-6.237V13.02h9.213v2.257h-9.213Zm19.135 6.237c-1.306 0-2.401-.31-3.286-.93-.885-.62-1.55-1.463-1.996-2.53-.447-1.074-.67-2.277-.67-3.608 0-1.348.223-2.554.67-3.62.446-1.067 1.099-1.906 1.959-2.518.868-.62 1.938-.93 3.211-.93 1.265 0 2.36.31 3.286.93.934.612 1.658 1.45 2.17 2.517.513 1.058.769 2.265.769 3.62 0 1.34-.252 2.543-.756 3.61-.505 1.066-1.215 1.909-2.133 2.529-.918.62-1.992.93-3.224.93Zm-6.46-.372V3.286h3.013v8.457h-.372v9.399h-2.642Zm6.001-2.306c.777 0 1.418-.195 1.922-.583.504-.389.876-.914 1.116-1.575.248-.67.372-1.414.372-2.232 0-.81-.124-1.546-.372-2.207-.248-.67-.632-1.199-1.153-1.588-.52-.396-1.182-.595-1.984-.595-.76 0-1.38.186-1.86.558-.48.364-.835.877-1.067 1.538-.223.653-.334 1.418-.334 2.294 0 .868.111 1.633.334 2.294.232.661.592 1.178 1.08 1.55.495.364 1.144.546 1.946.546Zm8.561 2.306V7.75h2.642v3.261l-.323-.421c.166-.447.385-.852.657-1.216a3.653 3.653 0 0 1 1.005-.917c.33-.224.694-.397 1.091-.521a4.97 4.97 0 0 1 1.24-.236 5.046 5.046 0 0 1 1.228.05v2.79c-.397-.116-.856-.153-1.377-.112a3.158 3.158 0 0 0-1.389.434 3.117 3.117 0 0 0-1.016.856 3.598 3.598 0 0 0-.571 1.19 5.22 5.22 0 0 0-.186 1.426v6.808h-3.001Zm12.592.372c-.967 0-1.786-.182-2.455-.546-.67-.372-1.178-.864-1.526-1.475a4.1 4.1 0 0 1-.508-2.021c0-.645.107-1.224.322-1.737.215-.52.546-.967.992-1.339.447-.38 1.025-.69 1.736-.93a16.54 16.54 0 0 1 1.885-.47 42.93 42.93 0 0 1 2.356-.385c.852-.124 1.74-.257 2.666-.397l-1.066.607c.008-.925-.199-1.607-.62-2.046-.422-.438-1.133-.657-2.133-.657-.603 0-1.186.14-1.748.422-.563.281-.955.765-1.178 1.45l-2.728-.855c.33-1.132.959-2.042 1.884-2.728.935-.686 2.191-1.03 3.77-1.03 1.19 0 2.236.195 3.137.584a3.892 3.892 0 0 1 2.021 1.91c.24.47.385.954.434 1.45.05.488.075 1.021.075 1.6v8.22h-2.617v-2.9l.434.47c-.603.968-1.31 1.679-2.12 2.133-.802.447-1.806.67-3.013.67Zm.595-2.38c.678 0 1.257-.12 1.736-.36.479-.24.86-.534 1.141-.88.289-.348.483-.675.583-.98.157-.38.243-.815.26-1.303.025-.495.037-.896.037-1.202l.918.272c-.901.141-1.674.265-2.319.373-.645.107-1.199.21-1.662.31-.463.09-.872.194-1.227.31a3.815 3.815 0 0 0-.881.434 1.94 1.94 0 0 0-.558.57 1.487 1.487 0 0 0-.186.756c0 .331.083.624.248.88.166.249.405.447.72.596.322.149.719.223 1.19.223Zm17.054 2.008c-.884.165-1.752.236-2.604.21-.843-.016-1.599-.169-2.269-.458a3.142 3.142 0 0 1-1.525-1.401 3.999 3.999 0 0 1-.484-1.773 77.637 77.637 0 0 1-.025-2.046V4.03h2.976V15.5c0 .537.005 1.008.013 1.413.016.406.103.736.26.992.298.496.773.773 1.426.831.653.058 1.397.025 2.232-.099v2.505Zm-9.337-11.048V7.75h9.337v2.344h-9.337Zm16.883 11.42c-1.355 0-2.546-.294-3.571-.88a6.273 6.273 0 0 1-2.406-2.443c-.57-1.042-.855-2.24-.855-3.596 0-1.463.281-2.732.843-3.807.562-1.083 1.343-1.922 2.344-2.517 1-.596 2.157-.893 3.472-.893 1.388 0 2.566.326 3.534.98.975.644 1.698 1.558 2.17 2.74.471 1.182.649 2.575.533 4.179h-2.964v-1.091c-.008-1.455-.264-2.518-.769-3.187-.504-.67-1.297-1.005-2.38-1.005-1.224 0-2.133.38-2.728 1.141-.596.752-.893 1.856-.893 3.31 0 1.357.297 2.407.893 3.15.595.745 1.463 1.117 2.604 1.117.735 0 1.368-.162 1.897-.484.537-.33.951-.806 1.24-1.426l2.951.893c-.513 1.207-1.306 2.145-2.381 2.814a6.511 6.511 0 0 1-3.534 1.005Zm-4.613-6.237V13.02h9.214v2.257h-9.214Z"
          fill="#fff"/>
    <defs>
        <clipPath id="a">
            <rect x=".4" y=".4" width="28" height="28" rx="3.2" fill="#fff"/>
        </clipPath>
    </defs>
</svg>
